<svg xmlns="http://www.w3.org/2000/svg" viewBox="0 0 139.02 145.76"><defs><style>.cls-1{fill:#fc9835;}</style></defs><g id="Layer_2" data-name="Layer 2"><g id="Layer_1-2" data-name="Layer 1"><path class="cls-1" d="M131.65,109.44a4.27,4.27,0,0,1-2.5,1.39,6.09,6.09,0,0,0-1,.22c-.31.09-.6.17-.87.22-.78,0-1.57.07-2.38.07s-1.62,0-2.46.07a2.66,2.66,0,0,1-1.83-2.48c-.11-.54-.21-1.05-.29-1.54s-.19-1-.3-1.54a17.65,17.65,0,0,0-2.7-.07,8.31,8.31,0,0,0-2.71.66,7.38,7.38,0,0,0-.29.73,5,5,0,0,0-.21.73V113h1.16c.78,0,1.53-.07,2.26-.07s1.47,0,2.25-.07a3.53,3.53,0,0,1,2.79.8,2.91,2.91,0,0,1,1,2.19c0,.69.12,1.38.21,2.09s.15,1.4.21,2.08c0,.39,0,.8,0,1.21s-.08.82-.13,1.21a2.18,2.18,0,0,1-1.84,1.83,9.53,9.53,0,0,1-1.12.21l-1,.15c-.56,0-1.08.08-1.59.08h-1.5c-.33,0-.66.08-1,.1a5.17,5.17,0,0,0-1,.19,1,1,0,0,0-.16.44v5.92c.11,1.37.94,2.12,2.5,2.27h1.62a11.4,11.4,0,0,1,1.29.07,2.39,2.39,0,0,0,.59-1.79,4.67,4.67,0,0,1,.33-2.09c.17-.29.64-.51,1.42-.65a19.28,19.28,0,0,1,3.42-.44c1.16-.05,2.33-.08,3.5-.08a1.74,1.74,0,0,1,1.25.33,6.09,6.09,0,0,1,.91.92,2.22,2.22,0,0,1,.5,1.39c.11.68.2,1.35.25,2s.09,1.33.09,2v2.19a14.72,14.72,0,0,1-.17,2.2,4.09,4.09,0,0,1-1.83,2.85,10.42,10.42,0,0,1-4.54,1.54c-1.75.19-3.38.34-4.88.44a48.83,48.83,0,0,1-10.34-.22,19,19,0,0,1-2.79-.51,7.28,7.28,0,0,1-2.46-1.18,5.88,5.88,0,0,1-1.79-2.37,18.48,18.48,0,0,1-.87-2.82,15.47,15.47,0,0,1-.59-4.79q.09-2.44,0-4.86-.07-4.9,0-10c.06-1.27.13-2.51.21-3.73s.18-2.46.29-3.73.07-2.38,0-3.62a24.57,24.57,0,0,1,.21-3.66,14.1,14.1,0,0,1,1-3.47,9.61,9.61,0,0,1,5-4.79,19.27,19.27,0,0,1,3.21-1,32.07,32.07,0,0,1,6.29-.55q3.21,0,6.38,0c.61,0,1.19,0,1.75.07s1.11.12,1.67.22a3.25,3.25,0,0,1,2.83,1.83l.5,1c.17.34.33.68.5,1a2.6,2.6,0,0,1,.21,1.24,6.06,6.06,0,0,1-.21,1.24,3.08,3.08,0,0,0-.08.73v.74c-.06,1.21-.09,2.43-.09,3.65v3.66a1.35,1.35,0,0,1,0,.33A1.35,1.35,0,0,0,131.65,109.44Z"/><path class="cls-1" d="M51.42,46.69C52.93,42.09,57.72,26.3,61.7.74,62.15-2.13,48.65,4,45.87,7.65,38.08,17.77,32.52,38.7,30.09,49.28c-.5.21-1,.44-1.49.67C29.69,43.16,31.09,32.5,32,18.34c.16-2.42-9,3.65-10.77,6.85-4.06,7.37-6.65,20.73-8.08,30.24-.82-5-1.88-10.85-3.25-17.39C9.41,35.65,2,43.48,1.13,47c-2.72,10.84.17,31.76,1.36,39.27A56.88,56.88,0,0,0,1.65,96c0,27.49,19.51,49.78,43.57,49.78a38.61,38.61,0,0,0,16.15-3.57,6.15,6.15,0,0,1-.67-.59,4.65,4.65,0,0,1-1-1.65,16.2,16.2,0,0,1-.57-1.84,36.55,36.55,0,0,1-.75-8.14q.07-4.18.45-8.2A28.2,28.2,0,0,0,59,117c-.08-1.6-.09-3.19,0-4.77,0-.85,0-1.69,0-2.53C55.59,117.46,49.73,122,45.22,122c-6.73,0-16.5-10.14-16.5-26s9.77-26,16.5-26c6.08,0,14.64,8.27,16.24,21.58a4.5,4.5,0,0,1,1-.49c.35-.11.73-.21,1.13-.3a33.52,33.52,0,0,1,5-.69c1.68-.11,3.39-.15,5.12-.13s3.44.08,5.14.17,3.35.15,5,.19a12.79,12.79,0,0,1,1.76.13l1.76.27a4.11,4.11,0,0,1,1.23.38C86.59,68.22,71.15,49.91,51.42,46.69Z"/><path class="cls-1" d="M96.92,67.43c0,.11,0,.22.07.32A1.55,1.55,0,0,1,97,68V69.8c0,.58,0,1.17,0,1.76a1,1,0,0,1-.07.45,1.67,1.67,0,0,0-.18.73v.74a.16.16,0,0,0,.07.1l.65-.82,1.19-1.44c.12-.15.23-.31.34-.46a4.78,4.78,0,0,1,.34-.42c.19-.26.39-.51.59-.76s.41-.5.6-.75.23-.27.32-.39a3.58,3.58,0,0,0,.29-.43,2,2,0,0,1,.67-.72,1.47,1.47,0,0,1,1-.17l.45,0,.48,0a7.85,7.85,0,0,1,1.28,0l1.24.12a.79.79,0,0,1,.69,1.17l-.33.51-.72,1c-.24.34-.46.69-.68,1.06a11.88,11.88,0,0,1-1.19,1.6c-.22.26-.42.51-.61.77s-.37.53-.54.81-.55.85-.85,1.25-.62.78-1,1.14l-.45.52-.38.47c.34.57.65,1.13,1,1.66s.62,1.07,1,1.59c.12.19.23.35.34.5s.22.31.34.5l.56,1.09c.18.37.37.73.56,1.1a19.85,19.85,0,0,0,1,2c.37.63.72,1.27,1.06,1.91a6.12,6.12,0,0,1,.54,1.16,1.66,1.66,0,0,1,0,1.2,1,1,0,0,1-.37.45.42.42,0,0,1-.21.06,1.29,1.29,0,0,0-.25,0c-.43,0-.87.07-1.3.08l-1.33.06a7.42,7.42,0,0,1-.94-.06,1.81,1.81,0,0,1-.86-.32,2,2,0,0,1-.32-.39c-.1-.15-.18-.3-.26-.43l-1.94-3.59c-.14-.3-.3-.59-.45-.88s-.32-.58-.49-.9a4.49,4.49,0,0,1-.36-.7.83.83,0,0,0-.5-.53,6.89,6.89,0,0,0-.11,2.15c.07.78.11,1.51.11,2.19,0,.32,0,.65,0,1s0,.65-.07,1a1.7,1.7,0,0,1-.07.44,1.08,1.08,0,0,1-.94.76l-.55.07-.56.06a3.91,3.91,0,0,1-1.08,0,2.75,2.75,0,0,1-1-.34,1.78,1.78,0,0,1-1.08-1.61c-.12-1.55-.17-3.09-.16-4.61s0-3.08.09-4.66c0-.66.06-1.31.11-2s.11-1.28.18-2,.16-1.5.2-2.25.07-1.52.12-2.29c0-.39.09-.77.13-1.13s.09-.74.16-1.13a3.16,3.16,0,0,1,.13-.53c.06-.17.12-.35.19-.53a1.27,1.27,0,0,1,.4-.46.84.84,0,0,1,.61-.16l1.21,0,1.2,0a3.43,3.43,0,0,1,.44.09Z"/><path class="cls-1" d="M123.38,88.53c0,.23,0,.46,0,.7a1.32,1.32,0,0,1-.18.67,1.19,1.19,0,0,1-.62.61,5.1,5.1,0,0,1-.9.35,7.77,7.77,0,0,1-2.3.2,2.16,2.16,0,0,1-.9-.17,1.88,1.88,0,0,1-.79-.68,2.31,2.31,0,0,1-.38-1,9.79,9.79,0,0,1-.06-1.11,1.43,1.43,0,0,0-.07-.46.66.66,0,0,0-.28-.36,1.09,1.09,0,0,0-.31-.08,1.88,1.88,0,0,0-.34,0h-2a.62.62,0,0,0-.29.07.86.86,0,0,0-.36.37,3.52,3.52,0,0,0-.18.52l-.23.73a4,4,0,0,1-.33.77,3.61,3.61,0,0,1-.46.69,1.6,1.6,0,0,1-.63.44,1.91,1.91,0,0,1-.62.17c-.21,0-.42,0-.61,0h-.84a6.22,6.22,0,0,1-.85-.07c-.19,0-.38,0-.56-.09a1.06,1.06,0,0,1-.48-.22,1,1,0,0,1-.4-.53,2.09,2.09,0,0,1-.11-.63,8.12,8.12,0,0,1,.29-1.83q.26-.91.51-1.8c.26-.87.52-1.73.79-2.6s.51-1.74.75-2.63a20.67,20.67,0,0,0,.53-2.23c.13-.75.28-1.49.44-2.22.29-1.3.6-2.59.92-3.87s.7-2.54,1.14-3.79c0-.14.1-.28.16-.43a1.49,1.49,0,0,1,.23-.39,1.54,1.54,0,0,1,.74-.48,7.21,7.21,0,0,1,.92-.21c.34,0,.68-.08,1-.1l1,0a6,6,0,0,1,1.2.12,2.2,2.2,0,0,1,1,.49,2,2,0,0,1,.63,1,7.77,7.77,0,0,1,.23,1.19c.08.46.16.89.25,1.3s.19.84.26,1.27.13,1,.18,1.49a7.31,7.31,0,0,0,.29,1.45,6.78,6.78,0,0,1,.27,1c0,.33.12.65.19,1s.11.55.18.82.15.55.22.82a12.83,12.83,0,0,1,.38,2.23,15.89,15.89,0,0,0,.34,2.25c.19.87.36,1.75.5,2.64S123.26,87.62,123.38,88.53Zm-7-5.61a.31.31,0,0,0,.18-.41c0-.46-.06-.91-.11-1.37s-.11-.91-.18-1.37a8,8,0,0,0-.2-1c-.08-.32-.16-.64-.23-1h-.07s-.11.1-.18.31-.15.43-.22.68l-.2.7a3.35,3.35,0,0,1-.12.39c-.15.42-.28.83-.4,1.24a5.36,5.36,0,0,0-.21,1.26.34.34,0,0,0,.07.38.63.63,0,0,0,.43.1l.61,0,.61,0A.57.57,0,0,0,116.36,82.92Z"/><path class="cls-1" d="M128.91,77.82c-.84-1.43-1.66-2.86-2.46-4.27s-1.6-2.84-2.4-4.28c-.12-.25-.23-.52-.34-.8a1,1,0,0,1,0-.81,1.07,1.07,0,0,1,.68-.61,5.47,5.47,0,0,1,1-.24,10.82,10.82,0,0,1,1.48-.1h.5a1.71,1.71,0,0,1,.47.12,2.12,2.12,0,0,1,.94.71,4.62,4.62,0,0,1,.64,1A9.9,9.9,0,0,0,130.3,70a13,13,0,0,1,.88,1.49,1.68,1.68,0,0,0,.18.21,1.63,1.63,0,0,1,.22.23,8.13,8.13,0,0,0,.52-.78c.16-.28.32-.54.49-.79l1.08-1.74c.16-.25.34-.5.52-.74a2.69,2.69,0,0,1,.67-.63,3,3,0,0,1,1-.36,10.56,10.56,0,0,1,1.1-.12,5,5,0,0,1,.86.07,1.28,1.28,0,0,1,.72.34.93.93,0,0,1,.26.41c0,.16.09.33.14.51a2.68,2.68,0,0,1,0,.69,4.72,4.72,0,0,1-.09.72,2.48,2.48,0,0,1-.23.68c-.11.21-.21.42-.31.65-.17.48-.36,1-.57,1.42s-.46.93-.72,1.39c-.43.82-.84,1.65-1.21,2.51s-.71,1.73-1,2.62a13.14,13.14,0,0,1-.91,2.12,21.47,21.47,0,0,0-1,2.12c-.28.73-.57,1.46-.84,2.2s-.59,1.48-.92,2.21c-.14.32-.3.64-.47,1a3.9,3.9,0,0,1-.65.89,4.41,4.41,0,0,1-.82.73,2.64,2.64,0,0,1-1,.43,2.55,2.55,0,0,1-.72.1h-.76a2.79,2.79,0,0,1-.9-.13,1.53,1.53,0,0,1-.76-1,2.51,2.51,0,0,1,0-.61,3.31,3.31,0,0,1,.09-.62,5.92,5.92,0,0,1,.31-1.07c.13-.36.25-.71.38-1.05.5-1.37,1-2.73,1.51-4.09s1-2.72,1.54-4.08Z"/><path class="cls-1" d="M96.87,127.19c-.06-.84-.12-1.65-.19-2.44a8.9,8.9,0,0,0-.57-2.37.47.47,0,0,1-.07-.2A.53.53,0,0,0,96,122a7.55,7.55,0,0,0-1.2-2,6.66,6.66,0,0,0-1.8-1.48,7.78,7.78,0,0,0-2.06-.82,17.08,17.08,0,0,0-2.41-.43c-.82-.09-1.63-.15-2.43-.2l-2.33-.13h-.44l-.31,0H81V117a1.57,1.57,0,0,0-1.18,1.46v8.25a1.68,1.68,0,0,0,1.78,1.57H83a1.82,1.82,0,0,0,1.65-1,3.47,3.47,0,0,1,1.05.41,2.52,2.52,0,0,1,1.09,1.39,8.63,8.63,0,0,1,.34,1.71,3.43,3.43,0,0,1-1.2,3.16,4.15,4.15,0,0,1-2.41.79c-2.4.05-4.77.05-7.13,0a5.9,5.9,0,0,1-1-.07,1.56,1.56,0,0,1-.83-.39,2,2,0,0,1-.71-1.22,5.17,5.17,0,0,1,0-1.42v-1.61c0-.55,0-1.11.08-1.68a4.21,4.21,0,0,1,0-.46.52.52,0,0,1,.11-.25V117s-.07,0-.07,0c0-1.18-.07-2.36-.07-3.52V110c0-.48.09-.94.15-1.38a12.29,12.29,0,0,1,.22-1.38,10.64,10.64,0,0,1,.23-1.12,1.06,1.06,0,0,1,.75-.79,7.6,7.6,0,0,1,2.77-.56,16.56,16.56,0,0,1,2.86.16c.05.57.08,1.14.11,1.71a14,14,0,0,0,.19,1.78c0,.27.11.54.18.83a1.25,1.25,0,0,0,.49.69,3.07,3.07,0,0,0,1.05.33,20,20,0,0,0,7.06.19c.45-.08.89-.18,1.31-.29a2.26,2.26,0,0,0,1.09-.63,1.75,1.75,0,0,0,.41-.72c.08-.27.17-.55.27-.86a29.85,29.85,0,0,0,.75-6.78,17.82,17.82,0,0,0-1.28-6.72,2.73,2.73,0,0,0-1.09-1.29,4.4,4.4,0,0,0-1.61-.56L88,92.34a11.3,11.3,0,0,0-1.76-.13c-1.6,0-3.25-.11-5-.2s-3.42-.14-5.15-.16-3.43,0-5.12.13a33.57,33.57,0,0,0-4.94.69c-.41.09-.78.19-1.14.3a4.5,4.5,0,0,0-1.05.49,3.4,3.4,0,0,0-1.36,1.68A15.3,15.3,0,0,0,62,97.21a27.07,27.07,0,0,0-.34,3.69c0,1.23-.06,2.48-.11,3.76,0,1.58,0,3.16,0,4.74s0,3.16,0,4.74,0,3.18,0,4.78a28.12,28.12,0,0,1-.18,4.77q-.39,4-.45,8.21a35.88,35.88,0,0,0,.75,8.13,17.66,17.66,0,0,0,.56,1.84,4.86,4.86,0,0,0,1,1.65,5.93,5.93,0,0,0,3.67,1.81,44.2,44.2,0,0,0,4.41.37q5.11,0,10.19-.17a53.68,53.68,0,0,0,10-1.28q1-.27,2.1-.63a4.1,4.1,0,0,0,1.73-1.09,3.62,3.62,0,0,0,.9-1.68c.15-.63.27-1.26.37-1.87.2-2,.33-3.94.38-5.9S97,129.16,96.87,127.19Z"/></g></g></svg>